<?xml version="1.0" encoding="utf-8" ?>
<svg baseProfile="full" height="800" version="1.1" width="600" xmlns="http://www.w3.org/2000/svg" xmlns:ev="http://www.w3.org/2001/xml-events" xmlns:xlink="http://www.w3.org/1999/xlink"><defs /><rect fill="white" height="800" width="600" x="0" y="0" /><polyline fill="none" points="0,0 10,10 20,20 30,30 40,40 50,50 60,60 70,70 80,80 90,90 100,100 110,110 120,120 130,130 140,140 150,150 160,160 170,170 180,180 190,190 200,200 210,210 220,220 230,230 240,240 250,250 260,260 270,270 280,280 290,290 300,300 310,310 320,320 330,330 340,340 350,350 360,360 370,370 380,380 390,380 400,380 410,380 420,380 430,380 440,390 450,400 460,410 470,420 480,430 490,440 500,450" stroke="black" stroke-width="2" /><circle cx="500" cy="450" fill="none" r="5" stroke="black" stroke-width="1" /></svg>