<?xml version="1.0" encoding="utf-8" ?>
<svg baseProfile="full" height="600" version="1.1" width="600" xmlns="http://www.w3.org/2000/svg" xmlns:ev="http://www.w3.org/2001/xml-events" xmlns:xlink="http://www.w3.org/1999/xlink"><defs /><rect fill="white" height="600" width="600" x="0" y="0" /><polyline fill="none" points="0,0 5,5 10,10 15,15 20,20 25,25 30,30 35,35 40,40 45,45 50,50 55,55 60,60 65,65 70,70 75,75 80,80 85,85 90,90 95,95 100,100 105,105 110,110 115,115 120,120 125,125 130,130 135,135 140,140 145,145 150,150 155,155 160,160 165,165 170,170 175,175 180,180 185,185 190,190 195,195 200,200 205,205 210,210 215,215 220,220 225,225 230,230 235,235 240,240 245,245 250,250 255,255 260,260 265,265 270,270 275,275 280,280 285,285 290,290 295,295 300,300" stroke="black" stroke-width="2" /><circle cx="300" cy="300" fill="none" r="5" stroke="black" stroke-width="1" /><polyline fill="none" points="145,150 145,155 150,155 150,160 155,160 155,165 160,170 165,175 170,180 175,185 180,190 185,195 190,200 195,205 200,210 205,215 210,220 215,225 220,230 225,235 230,240 235,245 240,250 245,255 250,260 255,265 260,270 265,275 270,280 275,285 280,290 285,295" stroke="black" stroke-width="2" /><circle cx="285" cy="295" fill="none" r="5" stroke="black" stroke-width="1" /><polyline fill="none" points="0,5 5,10 10,15 15,20 20,25 25,30 30,35 35,40 40,45 45,50 50,55 55,60 60,65 65,70 70,75 75,80 80,85 85,90 90,95 95,100 100,105 105,110 110,115 115,120 120,125 125,130 130,135 135,140 140,145 145,150" stroke="black" stroke-width="2" /><circle cx="145" cy="150" fill="none" r="5" stroke="black" stroke-width="1" /><polyline fill="none" points="10,0 15,5 20,10 25,15 30,20 35,25 40,30 45,35 50,40 55,45 60,50 65,55 70,60 75,65 80,70 85,75 90,80 95,85 100,90 105,95 110,100 115,105 120,110 125,115 130,120 135,125 140,130 145,135 150,140 155,145 160,150 165,155 170,160 175,165 180,170 185,175 190,180 195,185 200,190 205,195 210,200 215,205 220,210 225,215 230,220 235,225 240,230 245,235 250,240 255,245 260,250 265,255 270,260 275,265 280,270 285,275" stroke="black" stroke-width="2" /><circle cx="285" cy="275" fill="none" r="5" stroke="black" stroke-width="1" /><polyline fill="none" points="0,15 5,20 10,25 15,30 20,35 25,40 30,45 35,50 40,55 45,60 50,65 55,70 60,75 65,80 70,85 75,90 80,95 85,100 90,105 95,110 100,115 105,120 110,125 115,130 120,135 125,140 130,145 135,150 140,155 145,160 150,165 155,170 160,175 165,180 170,185 175,190 180,195 185,200 190,205 195,210 200,215 205,220 210,225 215,230 220,235 220,240 225,240 225,245 230,245 230,250 235,255 240,260 245,265 250,270 255,275 260,280" stroke="black" stroke-width="2" /><circle cx="260" cy="280" fill="none" r="5" stroke="black" stroke-width="1" /><polyline fill="none" points="180,160 185,160 185,165 185,170 190,170 190,175 195,180 200,185 205,190 210,195 215,200 220,205 225,210 230,215 235,220 240,225 245,230 250,235 255,240 260,245 265,250 270,255 275,260 280,265 285,270 290,275 295,280 300,285 305,290" stroke="black" stroke-width="2" /><circle cx="305" cy="290" fill="none" r="5" stroke="black" stroke-width="1" /><polyline fill="none" points="20,0 25,5 30,10 35,15 40,20 45,25 50,30 55,35 60,40 65,45 70,50 75,55 80,60 85,65 90,70 95,75 100,80 105,85 110,90 115,95 120,100 125,105 130,110 135,115 140,120 145,125 150,130 155,135 160,140 165,145 170,150 175,155 180,160" stroke="black" stroke-width="2" /><circle cx="180" cy="160" fill="none" r="5" stroke="black" stroke-width="1" /><polyline fill="none" points="0,25 5,30 10,35 15,40 20,45 25,50 30,55 35,60 40,65 45,70 50,75 50,80 55,80 60,80 60,85 65,85 70,90 75,95 80,100 85,105 90,110 95,115 100,120 105,125 110,130 115,135 120,140 125,145 130,150 135,155 140,160 145,165 150,170 155,175 160,180 165,185 170,190 175,195 180,200 185,205 190,210 195,215 200,220 205,225 210,230 215,235 215,240 220,245 225,250 230,255 235,260 240,265 245,270 250,275 255,280 260,285" stroke="black" stroke-width="2" /><circle cx="260" cy="285" fill="none" r="5" stroke="black" stroke-width="1" /><polyline fill="none" points="30,0 35,5 40,10 45,15 50,20 55,25 60,30 65,35 70,40 75,45 80,50 85,55 90,60 95,65 100,70 105,75 110,80 115,85 120,90 125,95 130,100 135,105 140,110 145,115 150,120 155,125 160,130 165,135 170,140 175,145 180,150 185,155 190,160 195,165 200,170 205,175 210,180 215,185 220,190 225,195 230,200 235,205 240,210 245,215 250,220 255,225 260,230 265,235 270,240 275,245 280,250 285,255 290,260 295,265 300,270 305,275" stroke="black" stroke-width="2" /><circle cx="305" cy="275" fill="none" r="5" stroke="black" stroke-width="1" /><polyline fill="none" points="0,35 5,40 10,45 15,50 20,55 25,60 30,65 35,70 40,75 45,80 50,85 55,90 60,95 65,100 70,105 75,110 80,115 85,120 90,125 95,130 100,135 105,140 110,145 115,150 120,155 125,160 130,165 135,170 140,175 145,180 150,185 155,190 160,195 165,200 170,205 175,210 180,215 185,220 190,225 195,230 200,235 205,240 210,245 215,250 220,255 225,260 230,265 235,270 240,275 245,280 250,285 255,290 260,295 265,300 270,305 275,310" stroke="black" stroke-width="2" /><circle cx="275" cy="310" fill="none" r="5" stroke="black" stroke-width="1" /><polyline fill="none" points="40,0 45,5 50,10 55,15 60,20 65,25 70,30 75,35 80,40 85,45 90,50 95,55 100,60 105,65 110,70 115,75 120,80 125,85 130,90 135,95 140,100 145,105 150,110 155,115 160,120 165,125 170,130 175,135 180,140 185,145 190,150 195,155 200,160 205,165 210,170 215,175 220,180 225,185 230,190 235,195 240,200 245,205 250,210 255,215 260,220 265,225 270,230 275,235 280,240 285,245 290,250 295,255 300,260 305,265 310,270 315,275" stroke="black" stroke-width="2" /><circle cx="315" cy="275" fill="none" r="5" stroke="black" stroke-width="1" /><polyline fill="none" points="80,125 80,130 85,130 90,130 90,135 95,135 100,140 105,145 110,150 115,155 120,160 125,165 130,170 135,175 140,180 145,185 150,190 155,195 160,200 165,205 170,210 175,215 180,220 185,225 190,230 195,235 200,240 205,245 210,250 215,255 220,260 225,265 230,270 235,275 240,280 245,285 250,290 255,295 260,300 265,305 270,310 275,315 280,320 285,325 290,330" stroke="black" stroke-width="2" /><circle cx="290" cy="330" fill="none" r="5" stroke="black" stroke-width="1" /><polyline fill="none" points="0,45 5,50 10,55 15,60 20,65 25,70 30,75 35,80 40,85 45,90 50,95 55,100 60,105 65,110 70,115 75,120 80,125" stroke="black" stroke-width="2" /><circle cx="80" cy="125" fill="none" r="5" stroke="black" stroke-width="1" /><polyline fill="none" points="195,145 195,150 200,150 205,150 210,150 215,150 220,155 225,160 230,165 235,170 240,175 245,180 250,185 255,190 260,195 265,200 270,205 275,210 280,215 285,220 290,225 295,230 300,235 305,240 310,245 315,250 320,255 325,260 330,265 335,270 340,275 345,280" stroke="black" stroke-width="2" /><circle cx="345" cy="280" fill="none" r="5" stroke="black" stroke-width="1" /><polyline fill="none" points="50,0 55,5 60,10 65,15 70,20 75,25 80,30 85,35 90,40 95,45 100,50 105,55 110,60 115,65 120,70 125,75 130,80 135,85 140,90 145,95 150,100 155,105 160,110 165,115 170,120 175,125 180,130 185,135 190,140 195,145" stroke="black" stroke-width="2" /><circle cx="195" cy="145" fill="none" r="5" stroke="black" stroke-width="1" /><polyline fill="none" points="75,130 75,135 75,140 75,145 75,150 75,155 80,160 85,165 90,170 95,175 100,180 105,185 110,190 115,195 120,200 125,205 130,210 135,215 140,220 145,225 150,230 155,235 160,240 165,245 170,250 175,255 180,260 185,265 190,270 195,275 200,280 205,285 210,290 215,295 220,300 225,305 230,310 235,315 240,320 245,325 250,330 255,335 260,340 265,345 270,350 275,355" stroke="black" stroke-width="2" /><circle cx="275" cy="355" fill="none" r="5" stroke="black" stroke-width="1" /><polyline fill="none" points="0,55 5,60 10,65 15,70 20,75 25,80 30,85 35,90 40,95 45,100 50,105 55,110 60,115 65,120 70,125 75,130" stroke="black" stroke-width="2" /><circle cx="75" cy="130" fill="none" r="5" stroke="black" stroke-width="1" /><polyline fill="none" points="60,0 65,5 70,10 75,15 80,20 85,25 90,30 95,35 100,40 105,45 110,50 115,55 120,60 125,65 130,70 135,75 140,80 145,85 150,90 155,95 160,100 165,105 170,110 175,115 180,120 185,125 190,130 195,135 200,140 205,145 210,145 215,145 220,150 225,155 230,160 235,165 240,170 245,175 250,180 255,185 260,190 265,195 270,200 275,205 280,210 285,215 290,220 295,225 300,230 305,235 310,240 315,245 320,250 325,255 330,260 335,265" stroke="black" stroke-width="2" /><circle cx="335" cy="265" fill="none" r="5" stroke="black" stroke-width="1" /><polyline fill="none" points="150,235 150,240 155,240 155,245 160,245 160,250 165,255 170,260 175,265 180,270 185,275 190,280 195,285 200,290 205,295 210,300 215,305 220,310 225,315 230,320 235,325 240,330 245,335 250,340 255,345 260,350 265,355" stroke="black" stroke-width="2" /><circle cx="265" cy="355" fill="none" r="5" stroke="black" stroke-width="1" /><polyline fill="none" points="0,65 5,70 10,75 15,80 20,85 25,90 30,95 35,100 40,105 45,110 50,115 55,120 60,125 65,130 70,135 70,140 70,145 70,150 70,155 75,160 80,165 85,170 90,175 95,180 100,185 105,190 110,195 115,200 120,205 125,210 130,215 135,220 140,225 145,230 150,235" stroke="black" stroke-width="2" /><circle cx="150" cy="235" fill="none" r="5" stroke="black" stroke-width="1" /><polyline fill="none" points="240,165 245,165 245,170 250,170 250,175 255,175 260,180 265,185 270,190 275,195 280,200 285,205 290,210 295,215 300,220 305,225 310,230 315,235 320,240 325,245 330,250 335,255 340,260 345,265 350,270 355,275 360,280" stroke="black" stroke-width="2" /><circle cx="360" cy="280" fill="none" r="5" stroke="black" stroke-width="1" /><polyline fill="none" points="70,0 75,5 80,10 85,15 90,20 95,25 100,30 105,35 110,40 115,45 120,50 125,55 130,60 135,65 140,70 145,75 150,80 155,85 160,90 165,95 170,100 175,105 180,110 185,115 190,120 195,125 200,130 205,135 210,140 215,140 220,145 225,150 230,155 235,160 240,165" stroke="black" stroke-width="2" /><circle cx="240" cy="165" fill="none" r="5" stroke="black" stroke-width="1" /><polyline fill="none" points="185,280 185,285 190,285 190,290 195,290 195,295 200,300 205,305 210,310 215,315 220,320 225,325 230,330 235,335 240,340 245,345 250,350 255,355 260,360 265,365" stroke="black" stroke-width="2" /><circle cx="265" cy="365" fill="none" r="5" stroke="black" stroke-width="1" /><polyline fill="none" points="0,75 5,80 10,85 15,90 20,95 25,100 30,105 35,110 40,115 45,120 50,125 55,130 60,135 65,140 65,145 65,150 65,155 70,160 75,165 80,170 85,175 90,180 95,185 100,190 105,195 110,200 115,205 120,210 125,215 130,220 135,225 140,230 145,235 145,240 150,245 155,250 160,255 165,260 170,265 175,270 180,275 185,280" stroke="black" stroke-width="2" /><circle cx="185" cy="280" fill="none" r="5" stroke="black" stroke-width="1" /></svg>