<?xml version="1.0" encoding="utf-8" ?>
<svg baseProfile="full" height="800" version="1.1" width="600" xmlns="http://www.w3.org/2000/svg" xmlns:ev="http://www.w3.org/2001/xml-events" xmlns:xlink="http://www.w3.org/1999/xlink"><defs /><rect fill="white" height="800" width="600" x="0" y="0" /><polyline fill="none" points="0,0 10,10 20,20 30,30 40,40 50,50 60,60 70,70 80,80 90,90 100,100 110,110 120,120 130,130 140,140 150,150 160,160 170,170 180,180 190,190 200,200 210,210 220,220 230,230 240,240 250,250 260,260 270,270 280,280 290,290 300,300 310,310 320,320 330,330 340,340 350,350 360,360 370,370 380,380 390,390 400,400 410,410 420,420 430,430 440,440 450,450 460,460 470,470 480,480 490,490 500,500" stroke="black" stroke-width="2" /><circle cx="500" cy="500" fill="none" r="5" stroke="black" stroke-width="1" /><polyline fill="none" points="0,10 10,20 20,30 30,40 40,50 50,60 60,70 70,80 80,90 90,100 100,110 110,120 120,130 130,140 140,150 150,160 160,170 170,180 180,190 190,200 200,210 210,220 220,230 230,240 240,250 250,260 260,270 270,280 280,290 290,300 300,310 310,320 320,330 330,340 340,350 350,360 360,370 370,380 380,390 390,400 400,410" stroke="black" stroke-width="2" /><circle cx="400" cy="410" fill="none" r="5" stroke="black" stroke-width="1" /><polyline fill="none" points="10,0 20,10 30,20 40,30 50,40 60,50 70,60 80,70 90,80 100,90 110,100 120,110 130,120 140,130 150,140 160,150 170,160 180,170 190,180 200,190 210,200 220,210 230,220 240,230" stroke="black" stroke-width="2" /><circle cx="240" cy="230" fill="none" r="5" stroke="black" stroke-width="1" /><polyline fill="none" points="240,230 250,230 250,240 260,240 260,250 270,250 280,260 290,270 300,280 310,290 320,300 330,310 340,320 350,330 360,340 370,350 380,360 390,370 400,380 410,390 420,400 430,410 440,420" stroke="black" stroke-width="2" /><circle cx="440" cy="420" fill="none" r="5" stroke="black" stroke-width="1" /><polyline fill="none" points="0,20 10,30 20,40 30,50 40,60 50,70 60,80 70,90 80,100 90,110 100,120 110,130 120,140 120,150 120,160 120,170 120,180 120,190 130,200 140,210 150,220 160,230 170,240 180,250 190,260 200,270 210,280 220,290 230,300 240,310 250,320 260,330 270,340 280,350 290,360 300,370 310,380 320,390 330,400 340,410 350,420" stroke="black" stroke-width="2" /><circle cx="350" cy="420" fill="none" r="5" stroke="black" stroke-width="1" /><polyline fill="none" points="20,0 30,10 40,20 50,30 60,40 70,50 80,60 90,70 100,80 110,90 120,100 130,110 140,120 150,130 160,140" stroke="black" stroke-width="2" /><circle cx="160" cy="140" fill="none" r="5" stroke="black" stroke-width="1" /><polyline fill="none" points="160,140 170,140 170,150 180,150 180,160 190,160 200,170 210,180 220,190 230,200 240,210 250,220 260,230 270,240 280,250 290,260 300,270 310,280 320,290 330,300 340,310 350,320 360,330 370,340 380,350 390,360 400,370 410,380 420,390 430,400 440,410 450,420" stroke="black" stroke-width="2" /><circle cx="450" cy="420" fill="none" r="5" stroke="black" stroke-width="1" /><polyline fill="none" points="0,30 10,40 20,50 30,60 40,70 50,80 60,90 70,100 80,110 90,120 100,130 110,140 110,150 110,160 110,170 110,180 110,190 120,200 130,210 140,220 150,230 160,240 170,250 180,260 190,270 200,280 210,290 220,300 230,310 240,320 250,330 260,340 270,350 280,360 290,370 300,380 310,390 320,400 330,410 340,420 350,430" stroke="black" stroke-width="2" /><circle cx="350" cy="430" fill="none" r="5" stroke="black" stroke-width="1" /><polyline fill="none" points="30,0 40,10 50,20 60,30 70,40 80,50 90,60 100,70 110,80 120,90 130,100 140,110 150,120 160,130 170,130 180,140 190,150 200,160 210,170 220,180 230,190 240,200 250,210 260,220 270,230 280,240 290,250 300,260 310,270 320,280 330,290 340,300 350,310 360,320 370,330 380,340 390,350 400,360 410,370 420,380 430,390" stroke="black" stroke-width="2" /><circle cx="430" cy="390" fill="none" r="5" stroke="black" stroke-width="1" /><polyline fill="none" points="0,40 10,50 20,60 30,70 40,80 50,90 60,100 70,110 80,120 90,130 100,140 100,150 100,160 100,170 100,180 100,190 110,200 120,210 130,220 140,230 150,240 160,250 170,260 180,270 190,280 200,290 210,300 220,310 230,320 240,330 250,340 260,350 270,360 280,370 290,380 300,390 310,400 320,410 330,420 340,430 350,440" stroke="black" stroke-width="2" /><circle cx="350" cy="440" fill="none" r="5" stroke="black" stroke-width="1" /><polyline fill="none" points="40,0 50,10 60,20 70,30 80,40 90,50 100,60 110,70 120,80 130,90 140,100 150,110 160,120 170,120 180,130 190,140 200,150 210,160 220,170 230,180 240,190 250,200 260,210 270,220 280,230 290,240 300,250 310,260 320,270 330,280 340,290 350,300 360,310 370,320 380,330 390,340 400,350 410,360 420,370 430,380 440,390" stroke="black" stroke-width="2" /><circle cx="440" cy="390" fill="none" r="5" stroke="black" stroke-width="1" /><polyline fill="none" points="0,50 10,60 20,70 30,80 40,90 50,100 60,110 70,120 80,130 90,140 90,150 90,160 90,170 90,180 90,190 100,200 110,210 120,220 130,230 140,240 150,250 150,260 150,270 150,280 150,290 150,300 160,310 170,320 180,330 190,340 200,350 210,360 220,370 230,380 240,390 250,400 260,410 270,420 280,430 290,440 300,450" stroke="black" stroke-width="2" /><circle cx="300" cy="450" fill="none" r="5" stroke="black" stroke-width="1" /><polyline fill="none" points="50,0 60,10 70,20 80,30 90,40 100,50 110,60 120,70 130,80 140,90 150,100 160,110 170,110 180,120 190,130 200,140 210,150 220,160 230,170 240,180 250,190 260,200 270,210 280,220 290,230 300,240 310,250 320,260 330,270 340,280 350,290 360,300 370,310 380,320 390,330 400,340 410,350 420,360 430,370 440,380 450,390" stroke="black" stroke-width="2" /><circle cx="450" cy="390" fill="none" r="5" stroke="black" stroke-width="1" /><polyline fill="none" points="0,60 10,70 20,80 30,90 40,100 50,110 60,120 70,130 80,140 80,150 80,160 80,170 80,180 80,190 90,200 100,210 110,220 120,230 130,240 140,250 140,260 140,270 140,280 140,290 140,300 150,310 160,320 170,330 180,340 190,350" stroke="black" stroke-width="2" /><circle cx="190" cy="350" fill="none" r="5" stroke="black" stroke-width="1" /><polyline fill="none" points="190,350 190,360 190,370 190,380 190,390 190,400 200,410 210,420 220,430 230,440 240,450 250,460 260,470 270,480 280,490 290,500 300,510" stroke="black" stroke-width="2" /><circle cx="300" cy="510" fill="none" r="5" stroke="black" stroke-width="1" /><polyline fill="none" points="60,0 70,10 80,20 90,30 100,40 110,50 120,60 130,70 140,80 150,90 160,100 170,100 180,110 190,120 200,130 210,140 220,150 230,160 240,160 240,170 250,170 250,180 260,180 270,190 280,200 290,210 300,220 310,230 320,240 330,250 340,260 350,270 360,280 370,290 380,300 390,310 400,320 410,330 420,340 430,350 440,360" stroke="black" stroke-width="2" /><circle cx="440" cy="360" fill="none" r="5" stroke="black" stroke-width="1" /><polyline fill="none" points="0,70 10,80 20,90 30,100 40,110 50,120 60,130 70,140 70,150 70,160 70,170 70,180 70,190 80,200 90,210 100,220 110,230 120,240 130,250 130,260 130,270 130,280 130,290 130,300 140,310 150,320 160,330 170,340 180,350 180,360 180,370 180,380 180,390 180,400 190,410 200,420 210,430 220,440 230,450 240,460 250,470" stroke="black" stroke-width="2" /><circle cx="250" cy="470" fill="none" r="5" stroke="black" stroke-width="1" /><polyline fill="none" points="70,0 80,10 90,20 100,30 110,40 120,50 130,60 140,70 150,80 160,90 170,90 180,100 190,110 200,120 210,130 220,140 230,150 240,150 250,160 260,170 270,180 280,190 290,200 300,210 310,220 320,230 330,240 340,250 350,260 360,270 370,280 380,290 390,300 400,310 410,320 420,330 430,340 440,350 450,360 460,370 470,380" stroke="black" stroke-width="2" /><circle cx="470" cy="380" fill="none" r="5" stroke="black" stroke-width="1" /><polyline fill="none" points="0,80 10,90 20,100 30,110 40,120 50,130 60,140 60,150 60,160 60,170 60,180 60,190 70,200 80,210 90,220 100,230 110,240 120,250 120,260 120,270 120,280 120,290 120,300 130,310 140,320 140,330 140,340 140,350 140,360 140,370 150,380 160,390 170,400 180,410 190,420 200,430 210,440 220,450 230,460 240,470 250,480" stroke="black" stroke-width="2" /><circle cx="250" cy="480" fill="none" r="5" stroke="black" stroke-width="1" /></svg>